<svg version="1.2" xmlns="http://www.w3.org/2000/svg" viewBox="0 0 309 70" width="309" height="70">
	<title>logo-svg</title>
	<style>
		.s0 { fill: #3c3a3b } 
		.s1 { fill: #ffc448 } 
	</style>
	<path id="Layer" fill-rule="evenodd" class="s0" d="m163.4 35.7h-5.8v11.3h-6.6v-31.8h12.4q3.7 0 6.4 1.4 2.7 1.3 4.1 3.7 1.4 2.3 1.4 5.4 0 3-1.4 5.3-1.4 2.2-4.1 3.5-2.7 1.2-6.4 1.2zm-5.8 0v-5.1h-2.3v5.1zm5.8-5.1q1.9 0 3.1-0.6 1.2-0.7 1.7-1.8 0.6-1.1 0.6-2.5 0-1.4-0.6-2.6-0.5-1.3-1.7-2-1.2-0.8-3.1-0.8h-5.8v10.3zm16.4-7.2h6.3v23.6h-6.3zm-0.4-6.1q0-1.4 0.9-2.3 1-0.9 2.6-0.9 1.6 0 2.6 0.9 1 0.9 1 2.3 0 1.3-1 2.2-1 0.9-2.6 0.9-1.6 0-2.6-0.9-0.9-0.9-0.9-2.2zm30.7 24.8v4.9h-19.6v-3.7l11.2-14.9h5.8v-5h2.2v3.6l-11.3 15.1zm-19.3-18.7h14.6l-3.7 5h-10.9zm42 18.7v4.9h-19.6v-3.8l11.3-14.9h5.8v-4.9h2.2v3.6l-11.4 15.1zm-19.3-18.7h14.7l-3.7 4.9h-11zm36 7.8q0-1.2-0.4-2-0.3-0.8-1.1-1.3-0.8-0.4-2-0.4-1 0-1.8 0.3-0.8 0.4-1.2 1.1-0.4 0.6-0.4 1.5h-6.3q0-1.5 0.7-2.8 0.7-1.4 2-2.4 1.4-1.1 3.2-1.7 1.9-0.5 4.2-0.5 2.7 0 4.8 0.9 2.2 0.9 3.4 2.7 1.3 1.9 1.3 4.6v10.1q0 2 0.2 3.2 0.2 1.2 0.7 2.1v0.4h-6.4q-0.4-0.9-0.6-2.2-0.4 0.4-0.8 0.8-0.9 0.8-2.2 1.3-1.3 0.6-3 0.6-2.3 0-4.1-0.9-1.8-1-2.9-2.5-1-1.7-1-3.7 0-1.9 0.7-3.3 0.7-1.5 2-2.4 1.4-1 3.4-1.5 2.1-0.6 4.8-0.6h2.8zm-2.6 5.1q-1.3 0-2.2 0.2-0.9 0.3-1.5 0.8-0.6 0.5-0.9 1.2-0.2 0.7-0.2 1.5 0 0.8 0.3 1.5 0.4 0.6 1.1 1 0.7 0.3 1.7 0.3 1.4 0 2.4-0.5 1.1-0.6 1.6-1.4 0.2-0.3 0.3-0.5v-4.1zm20.1 10.8h-6.3v-23.6h6l0.2 2.8q0.1-0.1 0.2-0.3 0.9-1.4 2.1-2.2 1.3-0.8 3-0.8 0.5 0 1.1 0.1 0.5 0.1 0.9 0.2l-0.2 5.8q-0.4 0-1.1-0.1-0.6 0-1.1 0-1.4 0-2.3 0.3-1 0.3-1.7 1-0.5 0.5-0.8 1.2zm10.5-23.6h6.3v23.6h-6.3zm-0.4-6.2q0-1.3 0.9-2.2 1-0.9 2.6-0.9 1.6 0 2.6 0.9 0.9 0.9 0.9 2.2 0 1.4-0.9 2.3-1 0.9-2.6 0.9-1.6 0-2.6-0.9-0.9-0.9-0.9-2.3zm24.6 14q0-1.2-0.4-2-0.3-0.8-1.1-1.3-0.8-0.4-2-0.4-1 0-1.8 0.4-0.8 0.3-1.2 1-0.4 0.6-0.4 1.5h-6.3q0-1.5 0.7-2.8 0.7-1.4 2-2.4 1.4-1.1 3.2-1.7 1.9-0.5 4.2-0.5 2.7 0 4.8 0.9 2.2 0.9 3.4 2.7 1.3 1.9 1.3 4.6v10.1q0 2 0.2 3.2 0.2 1.2 0.7 2.2v0.3h-6.4q-0.4-0.9-0.6-2.2-0.4 0.4-0.8 0.8-0.9 0.8-2.2 1.3-1.3 0.6-3 0.6-2.3 0-4.1-0.9-1.8-0.9-2.9-2.5-1-1.7-1-3.7 0-1.9 0.7-3.3 0.7-1.5 2-2.4 1.4-1 3.4-1.5 2.1-0.6 4.8-0.6h2.8zm-2.6 5.1q-1.3 0-2.2 0.2-0.9 0.3-1.5 0.9-0.6 0.5-0.9 1.1-0.2 0.7-0.2 1.5 0 0.8 0.3 1.5 0.4 0.6 1.1 1 0.7 0.3 1.6 0.3 1.5 0 2.5-0.5 1.1-0.6 1.6-1.4 0.2-0.3 0.3-0.5v-4.1z"/>
	<path id="Layer" fill-rule="evenodd" class="s1" d="m18.4 35.6h-5.9v11.3h-6.5v-31.7h12.4q3.7 0 6.4 1.3 2.6 1.3 4.1 3.7 1.4 2.3 1.4 5.4 0 3.1-1.4 5.3-1.5 2.2-4.1 3.5-2.7 1.2-6.4 1.2zm-5.9 0v-5.1h-2.2v5.1zm5.8-5.1q1.9 0 3.1-0.6 1.1-0.7 1.7-1.8 0.5-1.1 0.5-2.5 0-1.4-0.5-2.6-0.6-1.2-1.7-2-1.2-0.7-3.1-0.7h-5.8v10.2zm22.3 16.4h-6.3v-23.6h5.9l0.2 2.9q0.1-0.2 0.2-0.3 0.9-1.5 2.2-2.2 1.3-0.8 2.9-0.8 0.6 0 1.1 0.1 0.5 0 0.9 0.2l-0.1 5.8q-0.5-0.1-1.1-0.1-0.7-0.1-1.2-0.1-1.3 0-2.3 0.4-1 0.3-1.6 0.9-0.5 0.6-0.8 1.2zm8.4-11.5v-0.5q0-2.6 0.7-4.7 0.8-2.3 2.2-3.9 1.4-1.6 3.5-2.5 2.1-0.9 4.8-0.9 2.6 0 4.7 0.9 2.1 0.9 3.5 2.5 1.5 1.6 2.2 3.9 0.8 2.1 0.8 4.7v0.5q0 2.6-0.8 4.8-0.7 2.1-2.2 3.8-1.4 1.6-3.5 2.5-2 0.9-4.7 0.9-2.7 0-4.8-0.9-2.1-0.9-3.5-2.5-1.4-1.7-2.2-3.8-0.7-2.2-0.7-4.8zm6.3-0.5v0.5q0 1.5 0.2 2.8 0.3 1.2 0.9 2.2 0.6 1 1.5 1.5 0.9 0.6 2.3 0.6 1.3 0 2.2-0.6 1-0.5 1.5-1.5 0.6-1 0.9-2.2 0.3-1.3 0.3-2.8v-0.5q0-1.4-0.3-2.7-0.3-1.3-0.9-2.2-0.5-1-1.5-1.6-0.9-0.6-2.2-0.6-1.4 0-2.3 0.6-0.9 0.6-1.5 1.6-0.6 0.9-0.9 2.2-0.2 1.3-0.2 2.7zm20.3-11.6h6.3v25.1q0 2.6-1 4.4-0.9 1.8-2.8 2.7-1.8 1-4.3 1-0.8 0-1.6-0.1-0.8-0.1-1.6-0.3v-4.8q0.5 0.1 1 0.1 0.5 0.1 1 0.1 1 0 1.6-0.3 0.7-0.4 1-1.1 0.4-0.6 0.4-1.7zm-0.5-6.2q0-1.4 0.9-2.3 1-0.8 2.6-0.8 1.6 0 2.6 0.8 0.9 0.9 0.9 2.3 0 1.4-0.9 2.3-1 0.9-2.6 0.9-1.6 0-2.6-0.9-0.9-0.9-0.9-2.3zm22.6 30.2q-2.7 0-4.9-0.9-2.2-0.9-3.7-2.4-1.5-1.6-2.3-3.7-0.8-2.1-0.8-4.4v-0.9q0-2.7 0.7-4.9 0.8-2.2 2.2-3.9 1.5-1.6 3.5-2.5 2.1-0.9 4.6-0.9 2.5 0 4.5 0.9 1.9 0.8 3.2 2.3 1.4 1.5 2 3.7 0.7 2.1 0.7 4.7v2.6h-15.1q0.1 0.8 0.4 1.5 0.4 1.2 1.1 2.1 0.8 0.8 1.9 1.3 1 0.5 2.4 0.5 1.7 0 3.2-0.7 1.5-0.6 2.5-2l3.1 3.3q-0.7 1.1-2 2.1-1.3 1-3.1 1.6-1.8 0.6-4.1 0.6zm-5.4-10.3q0-0.5 0-1.1v-0.9q0-1.2 0.1-2.2h-3.7v4.2zm8.9-4.2v-0.5q0-1.3-0.5-2.3-0.5-1-1.4-1.7-1-0.6-2.4-0.6-1.3 0-2.2 0.6-0.9 0.5-1.4 1.5-0.6 1-0.8 2.3-0.1 0.4-0.2 0.7zm7.6-9.5h3.4v-5.9h6.3v5.9h4v4.4h-4v12.1q0 1 0.2 1.5 0.3 0.6 0.9 0.8 0.5 0.2 1.4 0.2 0.5 0 1-0.1 0.5 0 0.8-0.1v4.6q-0.8 0.3-1.7 0.4-1 0.2-2.1 0.2-2.1 0-3.6-0.7-1.5-0.7-2.4-2.2-0.8-1.5-0.8-4v-12.7h-3.4zm15.7 12.1v-0.5q0-2.6 0.8-4.8 0.7-2.2 2.2-3.8 1.4-1.6 3.4-2.5 2.1-0.9 4.8-0.9 2.7 0 4.8 0.9 2.1 0.9 3.5 2.5 1.4 1.6 2.2 3.8 0.7 2.2 0.7 4.8v0.5q0 2.5-0.7 4.7-0.8 2.2-2.2 3.8-1.4 1.7-3.5 2.6-2.1 0.8-4.8 0.8-2.6 0-4.7-0.8-2.1-0.9-3.5-2.6-1.5-1.6-2.2-3.8-0.8-2.2-0.8-4.7zm6.3-0.5v0.5q0 1.4 0.3 2.7 0.3 1.3 0.8 2.3 0.6 1 1.5 1.5 1 0.5 2.3 0.5 1.3 0 2.3-0.5 0.9-0.5 1.5-1.5 0.6-1 0.8-2.3 0.3-1.3 0.3-2.7v-0.5q0-1.4-0.3-2.7-0.2-1.3-0.8-2.3-0.6-1-1.5-1.5-1-0.6-2.3-0.6-1.3 0-2.3 0.6-0.9 0.5-1.5 1.5-0.5 1-0.8 2.3-0.3 1.3-0.3 2.7z"/>
</svg>